<svg xmlns="http://www.w3.org/2000/svg" xmlns:xlink="http://www.w3.org/1999/xlink" width="220.251" height="37.556" viewBox="0 0 220.251 37.556"><defs><clipPath id="a"><rect width="220.251" height="37.556" fill="#303a4d"/></clipPath></defs><g clip-path="url(#a)"><path d="M13,9.175C5.374,3.49-6.821-2.948,4.79,19.389c3.339,7.355,6.106,11.338,8.678,13.03-2.621-1.989-3.908-7.17-1.726-17.771.414-2.073.836-3.89,1.258-5.474" transform="translate(0 0.066)" fill="#2feda8" fill-rule="evenodd"/><path d="M23.4,36.8S-.766,33.229,27.323,18.654C58.072,2.7,35.489,30.291,32.761,32.225,30.054,34.146,22.539,30.641,23.4,36.8" transform="translate(0.182 0.245)" fill="#80cbf9" fill-rule="evenodd"/><path d="M20.31,14.8c-7.994,11.15-8.347,16.019-5.934,18.067-2.634-2.617-1.89-7.042,12.49-14.5,2.617-1.356,4.844-2.4,6.734-3.167,1.143-9.053.148-19.14-13.291-.4" transform="translate(0.173 0.075)" fill="#71bcf4" fill-rule="evenodd"/><path d="M19.869,14.41a74.252,74.252,0,0,1,4.756-6.052C21.784.288,16.757-7.424,12.245,15.082c-2.215,10.761-.6,15.978,2.09,17.9-.069-.061-.438-.475-.5-.538-2.281-2.238-1.953-6.883,6.038-18.03" transform="translate(0.148 0.004)" fill="#64b0f2" fill-rule="evenodd"/><path d="M207.262,22.744c-.076-3.6-.625-5.506-2.189-7.5a12.308,12.308,0,0,0-5.906-4.207,23.057,23.057,0,0,0-14.271,0A12.259,12.259,0,0,0,179,15.239c-1.427,1.83-2.017,3.7-2.045,6.87l0,14.806h10.48V23.344a8.311,8.311,0,0,1,.9-4.532,4.6,4.6,0,0,1,7.47.115,7.239,7.239,0,0,1,.942,3.511l-.009,14.478h10.513Zm-109.183.11c.065-3.876-.624-5.615-2.186-7.615a12.3,12.3,0,0,0-5.908-4.207,23.047,23.047,0,0,0-14.268,0,12.219,12.219,0,0,0-2.769,1.32,12.207,12.207,0,0,0-2.773-1.32,23.053,23.053,0,0,0-14.27,0,12.259,12.259,0,0,0-5.893,4.207c-1.428,1.83-2.045,4.094-2.07,7.264l.022,14.412H58.445l.011-13.577a8.311,8.311,0,0,1,.892-4.526,4.6,4.6,0,0,1,7.473.115,7.626,7.626,0,0,1,.953,3.6l-.023,14.389H78.265l.017-13.728a8.807,8.807,0,0,1,.875-4.376,4.6,4.6,0,0,1,7.473.115,7.032,7.032,0,0,1,.956,3.454l-.023,14.535H98.078Zm17.22,14.7a21.194,21.194,0,0,0,7.123-1.151,12.487,12.487,0,0,0,5.9-4.216q2.373-3.02,2.466-8.434-.094-5.484-2.466-8.513a12.312,12.312,0,0,0-5.9-4.207,23.063,23.063,0,0,0-14.273,0,12.278,12.278,0,0,0-5.9,4.207q-2.359,3.032-2.446,8.513.091,5.415,2.458,8.434a12.5,12.5,0,0,0,5.908,4.216,21.192,21.192,0,0,0,7.124,1.151m0-6.8a4.025,4.025,0,0,1-3.784-2.023,10.04,10.04,0,0,1-.982-4.925,9.516,9.516,0,0,1,1.061-4.993,4.6,4.6,0,0,1,7.47.115,9.749,9.749,0,0,1,1.005,4.878A9.761,9.761,0,0,1,119,28.86a4.027,4.027,0,0,1-3.7,1.893m44.61,6.8a21.145,21.145,0,0,0,7.118-1.151,12.461,12.461,0,0,0,5.907-4.216q2.374-3.02,2.468-8.434-.1-5.484-2.468-8.513a12.287,12.287,0,0,0-5.907-4.207,23.047,23.047,0,0,0-14.268,0,12.278,12.278,0,0,0-5.9,4.207q-2.359,3.032-2.452,8.513.091,5.415,2.464,8.434a12.493,12.493,0,0,0,5.91,4.216,21.16,21.16,0,0,0,7.122,1.151m0-6.8a4.021,4.021,0,0,1-3.784-2.023,10.017,10.017,0,0,1-.982-4.925,9.467,9.467,0,0,1,1.06-4.993,4.6,4.6,0,0,1,7.47.115,9.686,9.686,0,0,1,1,4.878,9.743,9.743,0,0,1-1.061,5.056,4.025,4.025,0,0,1-3.7,1.893M142.792,5.22A5.286,5.286,0,0,0,137.616,0h-5.389V31.55a5.284,5.284,0,0,0,5.108,5.118h5.457Zm66.258,5.162V31.752a5.283,5.283,0,0,0,5.171,5.131l5.395,0V15.526a5.287,5.287,0,0,0-5.174-5.143Z" transform="translate(0.635 0)" fill="#333" fill-rule="evenodd"/><path d="M210.082.216a3.293,3.293,0,0,0-3.133,3.232l-.005,4.279h5.506a5.285,5.285,0,0,0,5.059-5.159V.216Z" transform="translate(2.741 0.004)" fill="#2feda8"/></g></svg>